<svg viewBox="0 0 16 16" xml:space="preserve" xmlns="http://www.w3.org/2000/svg" fill-rule="evenodd" clip-rule="evenodd" stroke-linejoin="round" stroke-miterlimit="1.41421"><path d="M0 0h15.36v15.36H0z" fill="none"></path><path d="M5.915 12.632a.102.102 0 0 0-.102.101v.842a.1.1 0 0 0 .1.101c.806.005 1.612.005 2.417 0a.1.1 0 0 0 .1-.1l.006-.834a.102.102 0 0 0-.03-.072.097.097 0 0 0-.073-.029c-.806.018-1.612-.003-2.418-.009Zm4.024-6.796a.099.099 0 0 1 .1.1v.213a.08.08 0 0 1-.023.057.084.084 0 0 1-.057.024h-.001a.73.73 0 0 0-.703.684v.003c-.028 2.216-.001 4.432 0 6.649a.105.105 0 0 1-.029.071.101.101 0 0 1-.072.029h-.192a.101.101 0 0 1-.072-.029.105.105 0 0 1-.029-.071v-1.152c0-.21.022-.452.001-.636l-.001-.012V6.933a.73.73 0 0 0-.685-.703h-.002a82.06 82.06 0 0 0-2.105 0h-.002a.73.73 0 0 0-.684.684v.003c-.021 1.662-.011 3.325-.005 4.988v.003c-.004.131-.008.262.001.377l.001.008.002 1.273a.1.1 0 0 1-.029.071.1.1 0 0 1-.071.029h-.193a.099.099 0 0 1-.071-.029.102.102 0 0 1-.03-.071V6.932a.73.73 0 0 0-.666-.701h-.003c-.038-.002-.076-.001-.115-.001v-.294a.1.1 0 0 1 .101-.1h5.634Zm-5.657.825a.284.284 0 0 1 .275.258v.001c.082 2.157.012 4.316.001 6.474a.1.1 0 0 1-.061.093.103.103 0 0 1-.11-.021.687.687 0 0 1-.183-.426v-.003c-.026-2.099-.008-4.198-.002-6.297a.08.08 0 0 1 .08-.079Zm5.757.114a.1.1 0 0 0-.04-.08.099.099 0 0 0-.088-.017c-.125.036-.223.1-.225.258v6.456c0 .04.024.077.062.093.037.015.08.007.109-.021a.679.679 0 0 0 .182-.444V6.775Zm-4.226 5.242c0-.026.011-.052.03-.071a.099.099 0 0 1 .071-.029h2.415c.027 0 .053.01.071.029.019.019.03.045.03.071v.083a.102.102 0 0 1-.03.071.097.097 0 0 1-.071.029H5.914a.099.099 0 0 1-.071-.029.102.102 0 0 1-.03-.071v-.083Zm4.758-5.451a.1.1 0 0 0-.101.101v.248a4723.674 4723.674 0 0 1 .527.007l.127.007c.342.023.675.169.694.744a53.58 53.58 0 0 1-.008 3.63c-.041.566-.558.593-1.049.588l-.189-.001a.097.097 0 0 0-.072.029.1.1 0 0 0-.03.071v.105c0 .028.011.053.031.072.019.019.045.03.072.029l.101-.003c.308-.009.629.024.893-.1.716-.338.544-1.08.546-1.777.004-.977.065-1.985-.005-2.907a.958.958 0 0 0-.88-.841c-.219-.002-.438-.002-.657-.002Zm-3.132.077a.101.101 0 0 0-.102.101v4.614c0 .055.045.1.1.101.304.002.607.008.911.017a.11.11 0 0 0 .073-.028.108.108 0 0 0 .031-.072c.018-1.485.034-2.971-.023-4.456v-.001a.282.282 0 0 0-.258-.258H8.17a29.593 29.593 0 0 0-.731-.018Zm-.533.101a.101.101 0 0 0-.102-.101c-.243.003-.487.009-.731.018h-.001a.284.284 0 0 0-.259.275v4.438a.1.1 0 0 0 .031.073.103.103 0 0 0 .073.028c.296-.009.593-.014.889-.016a.102.102 0 0 0 .1-.101V6.744ZM3.863 4.879c2.025 0 4.05.047 6.074.009a.101.101 0 0 1 .102.101v.315a.099.099 0 0 1-.1.1H4.08a.102.102 0 0 1-.054-.015l-.513-.324a.1.1 0 0 1-.043-.113.1.1 0 0 1 .097-.073h.296ZM10 4.054h.005a.413.413 0 0 0 .039-.005c.007-.002.014-.002.022-.002l.316.007h.001c.109.011.117.394-.007.394H3.86c-.108-.011-.113-.39.007-.394l.363-.001h.006l.002.001H10Zm-.325-.447a.1.1 0 0 0 .101-.117.683.683 0 0 0-.622-.539h-.002c-1.348-.017-2.695 0-4.043 0h-.001a.671.671 0 0 0-.638.54.094.094 0 0 0 .023.079.098.098 0 0 0 .075.034c1.702-.031 3.405-.031 5.107.003Zm-2.424-1.1a.1.1 0 0 0 .084-.044l.29-.428a.091.091 0 0 0 .017-.057c.005-.097.017-.291-.126-.296v-.001c-.261-.003-.523 0-.784 0-.147.002-.142.208-.133.295a.088.088 0 0 0 .016.047c.037.062.221.333.294.44a.1.1 0 0 0 .083.044h.259Z" fill="#7d5c49" class="fill-000000"></path></svg>