<svg viewBox="0 0 64 64" xml:space="preserve" xmlns="http://www.w3.org/2000/svg"><path d="M48.4 27.3 44 24v-9.667c0-.079-.008-.157-.01-.236.002-.033.01-.064.01-.097 0-.079-.014-.153-.023-.23A12.077 12.077 0 0 0 41.6 7.134L40 5c-1.878-2.504-4.87-4-8-4s-6.122 1.496-8 4l-1.6 2.133a12.077 12.077 0 0 0-2.4 7.2V24l-4.4 3.3a9.045 9.045 0 0 0-3.6 7.2V41a2 2 0 0 0 2 2h8.614l2.513 6.702A2 2 0 0 0 27 51h10a2 2 0 0 0 1.873-1.298L41.386 43H50a2 2 0 0 0 2-2v-6.5a9.046 9.046 0 0 0-3.6-7.2zM24 14.333a8.05 8.05 0 0 1 1.6-4.8L27.2 7.4C28.327 5.897 30.122 5 32 5s3.673.897 4.8 2.4l1.6 2.134A8.003 8.003 0 0 1 39.635 12H29a2 2 0 0 0 0 4h11v23H24V14.333zM16 34.5c0-1.565.748-3.06 2-4l2-1.5v10h-4v-4.5zM35.614 47h-7.228l-1.5-4h10.228l-1.5 4zM48 39h-4V29l2 1.5c1.252.94 2 2.435 2 4V39zM35.75 55.438l-3.75 3-3.75-3a1.999 1.999 0 1 0-2.5 3.124l5 4a1.999 1.999 0 0 0 2.5 0l5-4a2 2 0 1 0-2.5-3.124z" fill="#adb5bd" class="fill-000000"></path><path d="M32 30a2 2 0 0 0 2-2v-3a2 2 0 0 0-4 0v3a2 2 0 0 0 2 2z" fill="#adb5bd" class="fill-000000"></path></svg>