<?xml version="1.0" encoding="iso-8859-1"?>
<!-- Generator: Adobe Illustrator 19.0.0, SVG Export Plug-In . SVG Version: 6.00 Build 0)  -->
<svg version="1.1" id="Layer_1" xmlns="http://www.w3.org/2000/svg" xmlns:xlink="http://www.w3.org/1999/xlink" x="0px" y="0px"
	 viewBox="0 0 512 512" style="enable-background:new 0 0 512 512;" xml:space="preserve">
<g>
	<g>
		<path fill="#6c757d" d="M457.876,54.124c-69.436-69.437-179.059-71.487-250.98-9.461C162.25,16.462,101.357,20.93,61.208,61.079
			c-19.636,19.637-19.636,51.59,0.001,71.227l53.588,53.588c-21.43,32.275-18.286,76.685,10.686,105.656l94.97,94.97
			c28.656,28.657,73.059,32.232,105.647,10.677l53.596,53.596c19.635,19.636,51.59,19.639,71.228,0
			c40.139-40.138,44.624-101.029,16.415-145.687C529.371,233.175,527.304,123.549,457.876,54.124z M434.134,77.866
			c55.163,55.165,58.662,141.997,11.216,201.154l-23.938-23.938c34.439-45.995,30.771-111.684-11.019-153.474
			c-6.555-6.556-17.186-6.556-23.742,0c-6.556,6.556-6.556,17.186,0,23.742c28.665,28.665,32.221,73.072,10.676,105.647
			L232.98,66.65C292.056,19.27,378.89,22.622,434.134,77.866z M244.194,362.776l-94.97-94.971
			c-15.809-15.809-18.619-39.029-9.855-57.338c6.825,6.825,154.86,154.86,162.147,162.146
			C282.798,381.533,259.672,378.252,244.194,362.776z M427.18,427.048c-6.548,6.547-17.196,6.545-23.743,0
			C389.049,412.661,99.395,123.007,84.952,108.562c-6.545-6.545-6.545-17.197,0.001-23.742c32.805-32.806,85.902-32.809,118.711,0
			L427.18,308.336C459.984,341.14,459.991,394.239,427.18,427.048z"/>
	</g>
</g>
<g>
	<g>
		<circle fill="#6c757d" cx="184.84" cy="137.217" r="16.788"/>
	</g>
</g>
<g>
	<g>
		<circle fill="#6c757d" cx="279.807" cy="232.195" r="16.788"/>
	</g>
</g>
<g>
	<g>
		<circle fill="#6c757d" cx="374.774" cy="327.162" r="16.788"/>
	</g>
</g>
<g>
	<g>
		<path fill="#6c757d" d="M93.857,306.656c-5.338-7.583-15.809-9.401-23.391-4.065L7.127,347.175c-7.583,5.336-9.403,15.809-4.065,23.392
			c5.338,7.584,15.809,9.401,23.391,4.065l63.339-44.583C97.374,324.711,99.194,314.239,93.857,306.656z"/>
	</g>
</g>
<g>
	<g>
		<path fill="#6c757d" d="M205.345,418.142c-7.583-5.338-18.057-3.517-23.391,4.065l-44.584,63.34c-5.338,7.582-3.518,18.054,4.065,23.392
			c7.585,5.339,18.058,3.514,23.391-4.065l44.584-63.34C214.747,433.952,212.928,423.479,205.345,418.142z"/>
	</g>
</g>
<g>
	<g>
		<path fill="#6c757d" d="M138.041,373.96c-6.554-6.555-17.185-6.556-23.742,0L4.919,483.34c-6.558,6.555-6.558,17.186,0,23.741
			c6.555,6.556,17.186,6.556,23.742,0l109.38-109.379C144.598,391.146,144.598,380.516,138.041,373.96z"/>
	</g>
</g>
<g>
</g>
<g>
</g>
<g>
</g>
<g>
</g>
<g>
</g>
<g>
</g>
<g>
</g>
<g>
</g>
<g>
</g>
<g>
</g>
<g>
</g>
<g>
</g>
<g>
</g>
<g>
</g>
<g>
</g>
</svg>
