<svg data-name="Layer 1" viewBox="0 0 128 128" xmlns="http://www.w3.org/2000/svg"><path d="M64 12.68a16.49 16.49 0 0 1 5.7 1 1 1 0 0 0 .34.06 1 1 0 0 0 .34-1.94A18.43 18.43 0 0 0 64 10.68a1 1 0 0 0 0 2ZM46.8 24.75a1 1 0 0 0 .32.06 1 1 0 0 0 1-.68 17 17 0 0 1 10.65-10.6 1 1 0 0 0-.63-1.9 19 19 0 0 0-11.96 11.85 1 1 0 0 0 .62 1.27ZM64 47.82a3.25 3.25 0 1 0-3.25-3.25A3.26 3.26 0 0 0 64 47.82Zm0-4.5a1.25 1.25 0 1 1-1.25 1.25A1.25 1.25 0 0 1 64 43.32ZM82.34 45.75a3.25 3.25 0 1 0-3.25-3.25 3.26 3.26 0 0 0 3.25 3.25Zm0-4.5a1.25 1.25 0 1 1-1.25 1.25 1.25 1.25 0 0 1 1.25-1.25ZM45.66 45.75a3.25 3.25 0 1 0-3.25-3.25 3.26 3.26 0 0 0 3.25 3.25Zm0-4.5a1.25 1.25 0 1 1-1.25 1.25 1.25 1.25 0 0 1 1.25-1.25ZM31.21 58.55c-9.5-2.06-12.88-4.55-12.88-6.18a1 1 0 1 0-2 0c0 3.31 4.86 6.05 14.46 8.13a.75.75 0 0 0 .21 0 1 1 0 0 0 .21-2ZM104.83 46.39a1 1 0 1 0-.7 1.87c3.52 1.33 5.54 2.83 5.54 4.11 0 4.31-18.76 9.12-45.67 9.12a1 1 0 0 0 0 2c23.11 0 47.67-3.9 47.67-11.12 0-2.26-2.3-4.27-6.84-5.98Z" fill="#000000" class="fill-000000"></path><path d="M96.77 39.9V28.68a2.83 2.83 0 0 0 0-.29c0-2.45-2.79-4.51-8.3-6.12a25.44 25.44 0 0 0-48.94 0c-5.51 1.61-8.3 3.67-8.3 6.12a2.83 2.83 0 0 0 0 .29V39.9c-9.51 1.49-30 5.68-30 14.15C1.22 59 8.51 63 19.48 65.77c1 6.43 23.38 9.9 44.52 9.9s43.55-3.47 44.52-9.9c11-2.81 18.26-6.79 18.26-11.72 0-8.46-20.49-12.66-30.01-14.15Zm-63.54-8.26c4.92 3.73 18.15 5.71 30.77 5.71s25.85-2 30.77-5.71v14.14c0 2.91-11.7 7-30.77 7s-30.77-4.06-30.77-7Zm61.54-3.25c0 1.16-1.87 2.5-5.32 3.7v-2.85a25.24 25.24 0 0 0-.45-4.71c4.22 1.39 5.77 2.87 5.77 3.86ZM64 5.79a23.48 23.48 0 0 1 23.45 23.45v3.45C82.14 34.22 74.1 35.35 64 35.35s-18.14-1.13-23.46-2.64v-3.47A23.48 23.48 0 0 1 64 5.79ZM39 24.53a25.24 25.24 0 0 0-.44 4.71v2.85c-3.45-1.2-5.32-2.54-5.32-3.7-.01-.99 1.54-2.47 5.76-3.86Zm25 49.14c-23.9 0-39.44-4-42.15-7.32 11.74 2.71 27.07 4.19 42.15 4.19s30.41-1.48 42.15-4.19c-2.71 3.33-18.25 7.32-42.15 7.32Zm0-5.13C27.64 68.54 3.22 61 3.22 54.05c0-4.7 11-9.42 28-12.12v3.85c0 5.83 16.88 9 32.77 9s32.77-3.14 32.77-9v-3.85c17 2.7 28 7.42 28 12.12.02 6.95-24.4 14.49-60.76 14.49ZM36.16 104.25l-6.24 13.25a1 1 0 0 0 .47 1.33 1 1 0 0 0 .43.1 1 1 0 0 0 .9-.57L38 105.1a1 1 0 0 0-1.81-.85ZM48 81.38a1 1 0 0 0-1.33.48l-2.3 4.87a1 1 0 0 0 .48 1.33 1.11 1.11 0 0 0 .43.09 1 1 0 0 0 .9-.57l2.3-4.87a1 1 0 0 0-.48-1.33ZM91.4 105.66a1 1 0 0 0-.48 1.34l5.36 11.36a1 1 0 0 0 .9.57 1 1 0 0 0 .43-.1 1 1 0 0 0 .48-1.33l-5.36-11.36a1 1 0 0 0-1.33-.48ZM84.74 92.53a.94.94 0 0 0 .43-.1 1 1 0 0 0 .48-1.33l-4.36-9.24a1 1 0 0 0-1.81.85L83.84 92a1 1 0 0 0 .9.53ZM38.45 80a1 1 0 0 0-1.38.31l-26.73 42.37a1 1 0 0 0 .31 1.38 1 1 0 0 0 .54.15 1 1 0 0 0 .84-.46l26.73-42.37a1 1 0 0 0-.31-1.38ZM116.81 124.21a1 1 0 0 0 .54-.15 1 1 0 0 0 .31-1.38L90.93 80.31a1 1 0 0 0-1.38-.31 1 1 0 0 0-.31 1.38L116 123.75a1 1 0 0 0 .81.46ZM46.51 95.48V96a3.93 3.93 0 0 0 2.93 3.8v3a7 7 0 0 0 5.08 6.75V120a1 1 0 0 0 1 1h2.95a1 1 0 0 0 .91-.6l2.53-5.72H72.8l4.82 6a1 1 0 0 0 .78.37h2.1a1 1 0 0 0 1-1v-13.82a6.1 6.1 0 0 0-1-3.3 2.9 2.9 0 0 1 2.16-1.37 1 1 0 0 0-.28-2 5 5 0 0 0-3.27 1.81 6.18 6.18 0 0 0-3.83-1.33h-12.4v-.24a3.94 3.94 0 0 0 2.93-3.8v-.53a1 1 0 0 0-1-1h-2.59a4.21 4.21 0 0 0 .78-2.05 1 1 0 0 0-2-.17 2.85 2.85 0 0 1-1.78 2.22H53.1a2.84 2.84 0 0 1-1.77-2.22 1 1 0 1 0-2 .17 4.29 4.29 0 0 0 .75 2.06h-2.57a1 1 0 0 0-1 1Zm28.81 6.57a4.18 4.18 0 0 1 4.18 4.18V119h-.63l-4.81-6a1 1 0 0 0-.78-.37h-12a1 1 0 0 0-.91.59L57.82 119h-1.3v-9.3a6.7 6.7 0 0 0 6.36-6.7v-1Zm-11.57-5.57a1.93 1.93 0 0 1-1.87 1.46 1 1 0 0 0-1 1V103a4.73 4.73 0 0 1-4.88 4.72 4.88 4.88 0 0 1-4.57-5v-3.78a1 1 0 0 0-1-1 2 2 0 0 1-1.88-1.46Z" fill="#000000" class="fill-000000"></path><path d="M53.33 101.67a1.09 1.09 0 0 0 .39.08 1 1 0 0 0 .7-1.71A1 1 0 0 0 53 100a1 1 0 0 0 0 1.42 1 1 0 0 0 .33.25ZM57.68 101.67a1 1 0 0 0 .38.08 1 1 0 0 0 .71-.29 1 1 0 0 0 .29-.71.68.68 0 0 0 0-.2 1.21 1.21 0 0 0 0-.18 1 1 0 0 0-.1-.17.61.61 0 0 0-.12-.16 1 1 0 0 0-1.09-.21 1.15 1.15 0 0 0-.33.21 1 1 0 0 0 0 1.42 1.15 1.15 0 0 0 .26.21Z" fill="#000000" class="fill-000000"></path></svg>