<svg viewBox="0 0 16 16" xml:space="preserve" xmlns="http://www.w3.org/2000/svg" fill-rule="evenodd" clip-rule="evenodd" stroke-linejoin="round" stroke-miterlimit="1.41421"><path d="M0 0h15.36v15.36H0z" fill="none"></path><path d="M9.054 12.244a.16.16 0 0 1 .16.16v.659a.627.627 0 0 1-.59.607c-1.072.013-2.145.013-3.217 0a.626.626 0 0 1-.59-.59c-.003-.225-.004-.45-.005-.675a.161.161 0 0 1 .161-.161h4.081Zm.582-1.463c0-.026.017-.048.042-.054.136-.034.27-.06.397-.059.452.02.844.414.862.871.003.232.005.466-.058.689a1.49 1.49 0 0 1-.85.955c-.097.039-.195.087-.29.129a.075.075 0 0 1-.103-.069v-.298c0-.031.019-.058.049-.069a1.62 1.62 0 0 0 .427-.217c.32-.246.426-.656.408-1.121-.016-.25-.25-.485-.494-.452-.106.019-.216.054-.319.084a.057.057 0 0 1-.049-.009.056.056 0 0 1-.022-.044v-.336Zm-4.658-.333a.161.161 0 0 0-.161.16l-.004 1.059a.161.161 0 0 0 .161.161c1.358-.006 2.717-.059 4.074-.01a.154.154 0 0 0 .117-.045.156.156 0 0 0 .049-.115v-1.04a.16.16 0 0 0-.162-.16c-1.358.019-2.716-.004-4.074-.01Zm4.524-.889c.059 0 .107.048.107.107v.258a.107.107 0 0 1-.107.107h-.077l-.005-.001c-1.602-.072-3.207 0-4.81.001h-.081a.107.107 0 0 1-.075-.032.103.103 0 0 1-.032-.075v-.258c0-.059.048-.107.107-.107h4.973Zm-.969-1.107a.106.106 0 0 1 .107.109 22.99 22.99 0 0 0-.005.454.108.108 0 0 1-.109.107 108.581 108.581 0 0 0-3.02 0 .107.107 0 0 1-.109-.107v-.456c0-.059.048-.107.107-.107h3.029Zm-.184-.69c.044 0 .083.026.099.066l.025.061a.11.11 0 0 1-.01.1.11.11 0 0 1-.089.047H5.657a.108.108 0 0 1-.099-.147l.025-.061a.107.107 0 0 1 .099-.066h2.667Zm-2.701-2.8a.13.13 0 0 0-.13-.13.124.124 0 0 0-.121.121v2.328c0 .018.007.035.02.047a.067.067 0 0 0 .048.018h.005a.178.178 0 0 0 .178-.178V4.962Zm2.87-.13a.134.134 0 0 0-.135.133v2.198c0 .098.078.179.176.182l.014.001.011.001a.072.072 0 0 0 .05-.018.067.067 0 0 0 .021-.05l-.021-2.331a.116.116 0 0 0-.079-.108c-.013-.002-.025-.007-.037-.008Zm-.551.178a.182.182 0 0 0-.182-.183c-.513-.001-1.026.002-1.538.004a.183.183 0 0 0-.183.183v2.143c0 .049.02.096.054.13a.188.188 0 0 0 .131.053c.511-.006 1.023-.015 1.534-.011a.184.184 0 0 0 .184-.183V5.01ZM6.064 2.102h-.437c-.28-.012-.29-.404 0-.416h.06l2.568-.006.167.006c.184.024.196.407-.018.416h-.437v2.124a.18.18 0 0 1-.054.13.18.18 0 0 1-.13.053c-.512-.003-1.023-.003-1.535 0a.183.183 0 0 1-.184-.183V2.102Z" fill="#7d5c49" class="fill-000000"></path></svg>