<svg viewBox="0 0 64 64" xmlns="http://www.w3.org/2000/svg"><g data-name="Galaxy"><circle cx="14.56" cy="36.02" r="3.07" fill="#575757" class="fill-ae66d3"></circle><circle cx="50.34" cy="24.56" r="2.67" fill="#000000" class="fill-fe4a13"></circle><circle cx="25.7" cy="50.76" r="2.24" fill="#000000" class="fill-a3daf4"></circle><circle cx="32" cy="31.39" r="2.35" fill="#000000" class="fill-a3daf4"></circle><circle cx="16.65" cy="6.92" r="2" fill="#000000" class="fill-fe4a13"></circle><circle cx="47.35" cy="55.87" r="2" fill="#575757" class="fill-ae66d3"></circle><path d="M4.53 18.4a1 1 0 0 0 1.41 0 18.36 18.36 0 0 1 30.38 7.12A7.27 7.27 0 0 0 32 24.09a20.39 20.39 0 0 0-16.22 8.07A4 4 0 0 0 10.49 36a4.06 4.06 0 0 0 1.79 3.37 20.55 20.55 0 0 0-.65 5.07 20.21 20.21 0 0 0 6 14.4 1 1 0 0 0 1.41 0 1 1 0 0 0 0-1.41 18.24 18.24 0 0 1-5.38-13 18 18 0 0 1 .55-4.4h.38A4.07 4.07 0 0 0 18.63 36a4 4 0 0 0-1.14-2.81 18.38 18.38 0 0 1 8.65-6.14c-4.88 6.59 2.63 24.69 18.93 24.69a20.23 20.23 0 0 0 14.4-6 1 1 0 0 0-1.41-1.41 18.36 18.36 0 0 1-30.38-7.12A7.27 7.27 0 0 0 32 38.69a20.27 20.27 0 0 0 17.82-10.52 3 3 0 0 0 .52 0 3.66 3.66 0 0 0 1.78-6.86 20.55 20.55 0 0 0 .25-3 20.23 20.23 0 0 0-6-14.4 1 1 0 0 0-1.41 0 1 1 0 0 0 0 1.42 18.22 18.22 0 0 1 5.38 13 18.44 18.44 0 0 1-.2 2.58A3.65 3.65 0 0 0 48 27.35a18.23 18.23 0 0 1-10.14 8.38C42.72 29.19 35.31 11 18.93 11a20.23 20.23 0 0 0-14.4 6 1 1 0 0 0 0 1.4Zm10 19.69a2.07 2.07 0 1 1 2.1-2.09 2.07 2.07 0 0 1-2.07 2.09Zm35.78-15.2a1.67 1.67 0 1 1-1.67 1.67 1.67 1.67 0 0 1 1.7-1.67Zm-23.61 8.5a5.3 5.3 0 1 1 5.3 5.3 5.31 5.31 0 0 1-5.3-5.3Z" fill="#31374a" class="fill-16244d"></path><path d="M22.12 37.4a1 1 0 0 0-1.11.88 20.5 20.5 0 0 0 .74 8.28 1 1 0 1 0 1.92-.56 18.14 18.14 0 0 1-.67-7.49 1 1 0 0 0-.88-1.11ZM41.24 59a18.4 18.4 0 0 1-11.64-4.16 1 1 0 0 0-1.4.14 1 1 0 0 0 .13 1.41A20.43 20.43 0 0 0 41.24 61a1 1 0 1 0 0-2ZM41.88 25.38H42a1 1 0 0 0 1-.88 20.4 20.4 0 0 0-1.78-11 1 1 0 1 0-1.81.85A18.39 18.39 0 0 1 41 24.28a1 1 0 0 0 .88 1.1ZM35.75 9.16a1 1 0 0 0 .7.3 1 1 0 0 0 .71-1.71 20.21 20.21 0 0 0-7.28-4.69 1 1 0 1 0-.7 1.88 18.34 18.34 0 0 1 6.57 4.22ZM10.59 26a1 1 0 0 0-1.41 0 20.33 20.33 0 0 0-4.58 7 1 1 0 0 0 1.87.72 18.16 18.16 0 0 1 4.12-6.3 1 1 0 0 0 0-1.42ZM15.37 23.87a1.06 1.06 0 0 0 .42-.09 18.15 18.15 0 0 1 6-1.65 1 1 0 0 0-.19-2A20.53 20.53 0 0 0 14.94 22a1 1 0 0 0-.48 1.33 1 1 0 0 0 .91.54ZM56.46 36.33a20 20 0 0 0 2.65-3.24A1 1 0 0 0 57.43 32a18 18 0 0 1-2.38 2.93 1 1 0 1 0 1.41 1.41ZM49.85 38.57a18.34 18.34 0 0 1-9.91 1.61 1 1 0 1 0-.23 2 20.75 20.75 0 0 0 2.36.14 20.31 20.31 0 0 0 8.63-1.92 1 1 0 1 0-.85-1.81ZM25.7 47.52a3.24 3.24 0 1 0 3.24 3.24 3.24 3.24 0 0 0-3.24-3.24Zm0 4.48a1.24 1.24 0 1 1 0-2.48 1.24 1.24 0 1 1 0 2.48ZM32 28a3.36 3.36 0 1 0 3.35 3.35A3.35 3.35 0 0 0 32 28Zm0 4.71a1.36 1.36 0 1 1 1.35-1.36 1.35 1.35 0 0 1-1.35 1.4ZM19.65 6.92a3 3 0 1 0-3 3 3 3 0 0 0 3-3Zm-4 0a1 1 0 1 1 1 1 1 1 0 0 1-1-1ZM47.35 58.86a3 3 0 1 0-3-3 3 3 0 0 0 3 3Zm0-4a1 1 0 1 1-1 1 1 1 0 0 1 1-.99Z" fill="#31374a" class="fill-16244d"></path></g></svg>