<?xml version="1.0" ?><svg viewBox="0 0 64 64" xmlns="http://www.w3.org/2000/svg"><defs><style>.cls-1{fill:#767689;}.cls-2{fill:#f9f9f9;}.cls-3{fill:#e6e5e1;}.cls-4{fill:#5f5f70;}.cls-5{fill:#6cc5ef;}.cls-6{fill:#16244d;}</style></defs><g data-name="UFO" id="UFO-3"><path class="cls-1" d="M18.29,4.73l41,41a2.48,2.48,0,1,1-3.5,3.51l-41-41a2.48,2.48,0,0,1,3.51-3.5Z" id="rect3447-2"/><path class="cls-2" d="M58.17,44.61c1.4-1.4.6-4.73-1.82-9-1.24-2.2-.94-5.33.19-7.58A15.29,15.29,0,0,0,36,7.46c-2.25,1.13-5.38,1.43-7.58.19-4.29-2.42-7.62-3.22-9-1.82Z" id="path3450-4"/><path class="cls-3" d="M36.83,30.28,23.73,43.37a2.19,2.19,0,0,1-3.1-3.1l13.09-13.1Z" id="rect3464-0"/><path class="cls-3" d="M29.87,23.32H6.2a2.2,2.2,0,1,1,0-4.39H25.48Z" id="path3478-6"/><path class="cls-3" d="M40.68,34.13V57.8a2.2,2.2,0,1,0,4.39,0V38.52Z" id="path3483-2"/><path class="cls-3" d="M42.85,5.82a15.16,15.16,0,0,0-4.71.75A15.28,15.28,0,0,1,52.55,28.74c-1.13,2.24-1.43,5.38-.19,7.58a24.41,24.41,0,0,1,2.06,4.54l3.75,3.75c1.4-1.4.6-4.73-1.82-9-1.24-2.2-.94-5.33.19-7.58A15.28,15.28,0,0,0,42.85,5.82Z" id="path7269"/><path class="cls-4" d="M54.43,40.87a2.48,2.48,0,0,1-3.52,3.49l4.86,4.86a2.48,2.48,0,1,0,3.5-3.51Z" id="path7302"/><path class="cls-5" d="M51,12.91a11.7,11.7,0,0,0-15.88-.52L51.6,28.88A11.68,11.68,0,0,0,51,13l0-.05Z" id="path3486-9"/><path class="cls-6" d="M59.45,44.48c.93-1.91.18-5.11-2.23-9.38a7.53,7.53,0,0,1,.22-6.64,16.31,16.31,0,0,0-21.9-21.9,7.49,7.49,0,0,1-6.64.22c-4.27-2.41-7.47-3.16-9.38-2.23L19,4a3.55,3.55,0,0,0-4.91,0,3.48,3.48,0,0,0,0,4.92l9,9H6.2a3.2,3.2,0,1,0,0,6.39H29.46l2.85,2.85L19.92,39.56a3.2,3.2,0,1,0,4.52,4.52L36.83,31.69l2.85,2.85V57.8a3.2,3.2,0,1,0,6.39,0V40.94l9,9A3.48,3.48,0,1,0,60,45Zm-31.53-36c2.67,1.51,6.2,1,8.52-.17A14.3,14.3,0,0,1,55.65,27.56c-1.17,2.32-1.68,5.85-.17,8.52,1.89,3.34,2.47,5.54,2.37,6.79L21.13,6.15C22.38,6.05,24.58,6.63,27.92,8.52ZM6.2,22.32a1.2,1.2,0,1,1,0-2.39H25.06l2.4,2.39ZM23,42.67a1.2,1.2,0,0,1-1.7-1.7L33.72,28.59l1.69,1.69Zm21,15.13a1.2,1.2,0,1,1-2.39,0V36.54l2.39,2.4Zm14.49-9.29a1.51,1.51,0,0,1-2.09,0l-22-22h0L15.49,7.53a1.48,1.48,0,0,1-.43-1,1.46,1.46,0,0,1,.43-1,1.46,1.46,0,0,1,2.09,0h0l41,41a1.46,1.46,0,0,1,0,2.09Z"/><path class="cls-6" d="M51.7,12.2a12.75,12.75,0,0,0-17.24-.56,1,1,0,0,0-.34.72,1,1,0,0,0,.29.74L50.9,29.58a1,1,0,0,0,.7.3h0a1,1,0,0,0,.72-.35A12.73,12.73,0,0,0,51.7,12.2Zm-.19,15.17L36.62,12.48C46.45,5.58,58.38,17.61,51.51,27.37Z"/><path class="cls-6" d="M33.61,13.86a1,1,0,0,0-1.41,1.41l4.62,4.63a1,1,0,0,0,.71.29,1,1,0,0,0,.71-.29,1,1,0,0,0,0-1.42Z"/><path class="cls-6" d="M45.51,25.76a1,1,0,0,0-1.41,1.41l4.63,4.63a1,1,0,0,0,1.41,0,1,1,0,0,0,0-1.41Z"/><path class="cls-6" d="M40.82,21.39a1.47,1.47,0,0,0-1.09,1.79,1.48,1.48,0,1,0,2.88-.7A1.47,1.47,0,0,0,40.82,21.39Z"/><path class="cls-6" d="M31,43.69a1,1,0,0,0-1,1V45h-.31a1,1,0,1,0,0,2H30v.31a1,1,0,0,0,2,0V47h.31a1,1,0,0,0,0-2H32v-.31A1,1,0,0,0,31,43.69Z"/><path class="cls-6" d="M10.88,15.36a1,1,0,0,0,1-1v-.3h.31a1,1,0,0,0,0-2h-.31v-.31a1,1,0,0,0-2,0v.31h-.3a1,1,0,0,0,0,2h.3v.3A1,1,0,0,0,10.88,15.36Z"/><path class="cls-6" d="M15,28.19a1,1,0,0,0-1,1v.31h-.31a1,1,0,1,0,0,2H14v.31a1,1,0,1,0,2,0V31.5h.31a1,1,0,1,0,0-2H16v-.31A1,1,0,0,0,15,28.19Z"/></g></svg>