<svg viewBox="0 0 512 512" xml:space="preserve" xmlns="http://www.w3.org/2000/svg"><g stroke="#231f20" stroke-miterlimit="10" class="stroke-231f20"></g><ellipse cx="258.375" cy="255.649" fill="#b6b9bd" rx="254.776" ry="252.774" class="fill-fbd50a"></ellipse><circle cx="392.115" cy="301.25" fill="none" r="38.25" stroke="#5c5c5c" stroke-miterlimit="10" stroke-width="25" class="stroke-f2f2f2"></circle><path d="M124.333 218.5c0 79.805 60.591 164.5 135.333 164.5S395 298.305 395 218.5" fill="#5c5c5c" class="fill-f2f2f2"></path><path d="M143.333 230.047c0 68.601 52.084 141.405 116.333 141.405S376 298.648 376 230.047" fill="#CA8B44" class="fill-ca8b44"></path><path d="M165.468 243.5c0 55.548 42.174 114.5 94.199 114.5s94.199-58.952 94.199-114.5" fill="#4B3B2E" class="fill-4b3b2e"></path><path fill="none" stroke="#5c5c5c" stroke-miterlimit="10" stroke-width="25" d="M170.5 385.5h172" class="stroke-f2f2f2"></path><path d="M216.748 195.695s-.353.165-1.021.377c-.667.209-1.651.469-2.899.625a20.248 20.248 0 0 1-4.531.081c-1.745-.175-3.742-.562-5.876-1.443a19.57 19.57 0 0 1-6.599-4.436c-1.09-1.076-2.105-2.408-3.002-3.906-.423-.771-.876-1.552-1.205-2.415a18.367 18.367 0 0 1-.925-2.655c-1.063-3.69-1.011-7.728-.25-11.264l.14-.67.076-.334.02-.083.01-.042c-.183.593-.048.15-.087.276l.021-.101.167-.813a31.19 31.19 0 0 1 .36-1.625c.027-.122.078-.3.084-.376l.028-.249c.018-.166.04-.33.075-.491.055-.33.148-.631.19-.982l.667-3.699c.128-1.029.37-2.006.422-3.216.028-1.219.023-2.656-.213-4.26l-.137-1.206c-.069-.417-.151-.823-.206-1.245-.108-.83-.26-1.677-.406-2.515-.252-1.67-.544-3.339-.727-4.856a57.255 57.255 0 0 1-.435-4.126c-.19-2.38-.091-3.951-.091-3.951s1.554.116 3.912.689c1.188.279 2.557.71 4.085 1.262 1.499.613 3.183 1.291 4.892 2.329a23.101 23.101 0 0 1 2.625 1.726c.451.323.884.674 1.338 1.027.452.374.881.798 1.33 1.216 1.785 1.651 3.526 3.877 4.995 6.576 1.466 2.73 2.481 6.035 2.894 9.379.38 3.347.146 6.584-.388 9.529-.136.749-.35 1.523-.53 2.28-.091.381-.196.759-.303 1.134l-.161.563c-.055.195-.094.28-.142.425a31.094 31.094 0 0 1-.577 1.562l-.299.774-.037.097-.102.325-.004.008-.008.016a.496.496 0 0 1-.035.063l-.08.123c-.411.678-.821 1.036-1.208 1.48-.403.444-.81 1.143-.903 2.206-.128 1.049.047 2.378.398 3.735a30.051 30.051 0 0 0 1.384 4.063c.535 1.303 1.099 2.502 1.586 3.546l1.688 3.467zM290.398 195.695l1.687-3.467c.487-1.044 1.051-2.243 1.586-3.546a30.143 30.143 0 0 0 1.384-4.063c.35-1.357.526-2.686.398-3.735-.093-1.062-.5-1.761-.903-2.206-.387-.444-.796-.802-1.208-1.48l-.08-.123a.388.388 0 0 1-.035-.063l-.008-.016-.004-.008-.102-.325-.037-.097-.299-.774c-.204-.516-.4-1.035-.577-1.562-.048-.145-.087-.231-.142-.425l-.161-.563a25.929 25.929 0 0 1-.303-1.134c-.18-.757-.394-1.531-.53-2.28-.533-2.946-.768-6.182-.388-9.529.413-3.344 1.428-6.65 2.894-9.379 1.469-2.699 3.21-4.926 4.995-6.576.449-.418.878-.842 1.33-1.216.454-.353.887-.704 1.338-1.027a23.237 23.237 0 0 1 2.625-1.726c1.709-1.038 3.393-1.716 4.892-2.329 1.528-.552 2.897-.984 4.085-1.262 2.358-.573 3.912-.689 3.912-.689s.099 1.571-.091 3.951a57.255 57.255 0 0 1-.435 4.126c-.183 1.518-.475 3.186-.727 4.856-.146.839-.299 1.685-.406 2.515-.055.422-.137.828-.206 1.245l-.137 1.206c-.236 1.604-.241 3.041-.213 4.26.052 1.21.294 2.187.422 3.216l.667 3.699c.042.351.135.651.19.982.035.161.057.325.075.491l.028.249c.006.076.058.254.084.376.136.538.253 1.081.36 1.625l.167.813.021.101c-.039-.126.096.318-.087-.276l.01.042.02.083.076.334.14.67c.761 3.536.813 7.574-.25 11.264-.24.923-.559 1.807-.925 2.655-.329.863-.782 1.644-1.205 2.415-.897 1.498-1.912 2.83-3.002 3.906a19.58 19.58 0 0 1-6.599 4.436c-2.134.881-4.132 1.269-5.876 1.443-1.756.157-3.275.09-4.531-.081a16.503 16.503 0 0 1-2.899-.625 9.35 9.35 0 0 1-1.02-.377zM259.036 189s-.548-.094-1.534-.379a29.787 29.787 0 0 1-4.135-1.56c-1.737-.785-3.772-1.888-5.985-3.424-2.194-1.548-4.584-3.526-6.877-6.165-2.287-2.632-4.534-5.931-6.122-10.119-.828-2.069-1.406-4.392-1.777-6.845-.127-1.24-.31-2.504-.278-3.804-.001-.648-.011-1.305.013-1.964.043-.657.107-1.317.175-1.982.529-5.353 2.652-10.605 5.498-14.994l.534-.831.272-.413.069-.103.035-.051c-.369.491-.088.115-.164.215l.099-.15.792-1.202a93.834 93.834 0 0 1 1.612-2.398c.125-.189.299-.419.385-.575l.278-.483c.184-.322.372-.642.571-.955.381-.641.811-1.228 1.168-1.903.72-1.333 1.572-2.671 2.146-3.944l.486-.961c.173-.32.344-.633.454-.946.262-.625.515-1.253.812-1.868.916-2.481 1.74-4.903 2.199-7.569.427-2.679.758-5.524.783-8.497l.071-2.207c-.009-.748-.034-1.486-.025-2.224l.001-2.191c-.019-.733-.053-1.45-.057-2.166-.015-2.843-.119-5.573-.097-8.014-.036-2.452.017-4.637.087-6.466.11-3.648.439-5.861.439-5.861s1.719 1.403 4.26 4.084c1.281 1.337 2.717 3.029 4.316 5.006 1.522 2.035 3.272 4.303 4.872 7.044.419.675.816 1.376 1.236 2.089.416.72.775 1.499 1.174 2.275.398.779.771 1.584 1.165 2.402.372.84.697 1.727 1.049 2.619 1.417 3.54 2.453 7.716 2.934 12.293.456 4.61.027 9.649-1.162 14.491-.33 1.185-.707 2.365-1.076 3.554-.343 1.214-.876 2.262-1.332 3.397-.892 2.305-2.081 4.275-3.198 6.351-.58 1.019-1.284 2.01-1.927 3.01-.326.5-.664.993-1.003 1.482l-.508.734c-.173.251-.303.398-.456.603a94.339 94.339 0 0 1-1.794 2.265l-.904 1.12-.381.492-.142.172-.293.337c-1.55 1.816-2.765 3.485-3.561 5.293-.455.899-.726 1.861-1.032 2.883-.211 1.034-.446 2.13-.491 3.3-.175 2.328.07 4.88.522 7.362a60.281 60.281 0 0 0 1.764 7.111c.676 2.201 1.384 4.173 1.986 5.841 1.229 3.317 2.054 5.389 2.054 5.389z" fill="#5c5c5c" class="fill-f2f2f2"></path></svg>