<svg viewBox="0 0 512 512" xml:space="preserve" xmlns="http://www.w3.org/2000/svg" enable-background="new 0 0 512 512"><path d="M428.593 204.934a92.786 92.786 0 0 1-4.148 3.536c-3.277 2.669-6.878 5.241-10.753 7.716l14.259 19.642.642-30.894zm-327.135 3.536a90.334 90.334 0 0 1-4.145-3.567l.66 30.925 14.242-19.642c-3.861-2.475-7.461-5.047-10.757-7.716zM318.279 83.707h-16.025v33.947h16.025V83.707zm-19.966-7.909h23.922c2.183 0 3.951 1.8 3.951 3.954v41.855c0 2.154-1.769 3.954-3.951 3.954h-23.922c-2.183 0-3.951-1.8-3.951-3.954V79.752c-.001-2.154 1.768-3.954 3.951-3.954zm-27.518 7.909h-16.042v33.947h16.042V83.707zm-19.993-7.909h23.931c2.187 0 3.955 1.8 3.955 3.954v41.855c0 2.154-1.769 3.954-3.955 3.954h-23.931c-2.172 0-3.938-1.8-3.938-3.954V79.752c0-2.154 1.765-3.954 3.938-3.954zm-27.518 7.909h-16.01v33.947h16.01V83.707zm-19.966-7.909h23.917c2.187 0 3.955 1.8 3.955 3.954v41.855c0 2.154-1.769 3.954-3.955 3.954h-23.917c-2.186 0-3.952-1.8-3.952-3.954V79.752c0-2.154 1.766-3.954 3.952-3.954zm139.327-16.717a112.888 112.888 0 0 0-5.913-5.497h-100.27a3.95 3.95 0 0 1-3.952-3.954 3.948 3.948 0 0 1 3.952-3.954h90.015c-18.133-12.408-40.071-19.674-63.701-19.674-31.199 0-59.44 12.665-79.886 33.079-17.73 17.745-29.592 41.374-32.421 67.67l-.031.257-.049.516-.014.225-.035.257-.014.129v.128l-.032.226-.018.257-.032.258-.018.257-.014.226v.031l-.018.226-.014.257-.067.74-.014.128v.129l-.018.257-.014.258-.018.225-.018.258-.014.257-.018.257-.014.258-.018.256-.018.227v.256l-.014.129v.129l-.018.257v.257l-.014.258-.018.225v.258h225.773v-.258l-.018-.225v-.258l-.018-.257-.014-.257v-.258l-.018-.256-.014-.227-.018-.256-.014-.258-.018-.257-.018-.257v-.258l-.032-.225-.014-.258-.018-.257v-.129l-.015-.128-.049-.74-.018-.257-.031-.226v-.031l-.018-.226-.014-.257-.032-.258-.018-.257-.014-.226-.018-.128-.018-.129-.032-.257-.014-.225-.049-.516-.031-.257c-2.818-26.328-14.698-49.925-32.428-67.67zm25.865 122.354c-2.172.128-4.053-1.544-4.18-3.697-.111-2.187 1.541-4.051 3.713-4.179.063 0 25.027-.707 48.814-20.993 1.639-1.382 4.131-1.188 5.545.45 1.414 1.64 1.225 4.146-.432 5.562-25.896 22.084-53.397 22.857-53.46 22.857zM139.635 417.652c2.474-2.057 5.868-3.342 9.563-3.342 3.681 0 7.071 1.285 9.549 3.342 2.667 2.251 4.324 5.401 4.324 8.906 0 3.504-1.657 6.653-4.324 8.872-2.478 2.09-5.868 3.376-9.549 3.376-3.696 0-7.089-1.286-9.563-3.376-2.667-2.219-4.324-5.368-4.324-8.872 0-3.537 1.656-6.655 4.324-8.906zm9.563 4.566c-1.801 0-3.391.579-4.5 1.479-.916.771-1.481 1.8-1.481 2.861 0 1.061.565 2.089 1.481 2.828 1.109.933 2.699 1.511 4.5 1.511 1.786 0 3.376-.578 4.485-1.511.916-.739 1.478-1.768 1.478-2.828 0-1.094-.562-2.09-1.46-2.861-1.127-.9-2.717-1.479-4.503-1.479zm93.469-166.652c2.478-2.059 5.868-3.344 9.549-3.344s7.071 1.285 9.546 3.344c2.671 2.25 4.341 5.4 4.341 8.904s-1.67 6.654-4.341 8.904c-2.475 2.059-5.864 3.344-9.546 3.344s-7.072-1.285-9.549-3.344c-2.667-2.25-4.338-5.4-4.338-8.904s1.671-6.654 4.338-8.904zm9.549 4.565c-1.786 0-3.394.579-4.502 1.511-.898.739-1.478 1.769-1.478 2.829s.579 2.09 1.478 2.829c1.109.933 2.716 1.511 4.502 1.511 1.8 0 3.39-.578 4.499-1.511.902-.739 1.481-1.769 1.481-2.829s-.579-2.09-1.481-2.829c-1.109-.932-2.699-1.511-4.499-1.511zm86.042 66.062c2.492-2.089 5.868-3.375 9.564-3.375 3.681 0 7.071 1.286 9.549 3.375 2.667 2.219 4.324 5.369 4.324 8.873 0 3.537-1.657 6.687-4.324 8.905-2.51 2.058-5.885 3.376-9.549 3.376-3.553 0-6.848-1.223-9.29-3.184l-.274-.192c-2.666-2.219-4.323-5.368-4.323-8.905 0-3.503 1.657-6.654 4.323-8.873zm9.564 4.534c-1.801 0-3.391.578-4.5 1.512-.92.771-1.48 1.768-1.48 2.828 0 1.094.561 2.09 1.48 2.861l.145.129c1.091.835 2.635 1.382 4.355 1.382 1.782 0 3.375-.578 4.484-1.511.916-.771 1.478-1.768 1.478-2.861 0-1.061-.562-2.058-1.478-2.828-1.109-.934-2.702-1.512-4.484-1.512zm-86.397-6.495a3.947 3.947 0 0 1 3.938-3.953 3.951 3.951 0 0 1 3.955 3.953v135.18a3.952 3.952 0 0 1-3.955 3.955c-2.169 0-3.938-1.769-3.938-3.955v-135.18zM233.7 338.604c0-2.188 1.765-3.955 3.952-3.955s3.955 1.768 3.955 3.955v77.347c0 2.186-1.769 3.953-3.955 3.953s-3.952-1.768-3.952-3.953v-77.347zm-27.729-57.834a3.96 3.96 0 0 1 3.955-3.953 3.949 3.949 0 0 1 3.952 3.953v93.936a3.948 3.948 0 0 1-3.952 3.953 3.96 3.96 0 0 1-3.955-3.953V280.77zm35.635 32.565c0 2.187-1.769 3.954-3.955 3.954s-3.952-1.768-3.952-3.954v-16.106c0-2.186 1.765-3.953 3.952-3.953s3.955 1.768 3.955 3.953v16.106zm27.729 168.742c0 2.153-1.786 3.922-3.955 3.922-2.187 0-3.955-1.769-3.955-3.922v-8.069a3.953 3.953 0 0 1 3.955-3.955 3.964 3.964 0 0 1 3.955 3.955v8.069zm27.711-38.545a3.951 3.951 0 0 1-3.955 3.954 3.948 3.948 0 0 1-3.938-3.954v-16.106a3.948 3.948 0 0 1 3.938-3.954 3.952 3.952 0 0 1 3.955 3.954v16.106zm-83.168 15.142a3.948 3.948 0 0 1-3.952 3.953 3.96 3.96 0 0 1-3.955-3.953V415.95c0-2.154 1.783-3.955 3.955-3.955 2.187 0 3.952 1.801 3.952 3.955v42.724zm-59.454-231.527c-.067.192-.162.354-.26.547l-98.21 170.093c-1.078 1.863-3.488 2.539-5.366 1.445-1.881-1.092-2.523-3.504-1.449-5.367l97.81-169.418a177.343 177.343 0 0 1-10.704-4.404c-5.773-2.572-11.139-5.305-16.06-8.197l-.274-.193c-4.98-2.957-9.497-6.075-13.483-9.291-3.825-3.086-7.202-6.364-10.062-9.708-.162-.192-.341-.417-.548-.578-5.689-6.88-9.163-14.146-10.062-21.7l.481.611.498.546.13.193.386.386.045.064.467.514.547.579.516.547.032.032.288.289.274.257c7.058 6.976 17.07 13.374 29.479 18.968l.706.321.305.128 1.014.45.13.032.916.386.544.258.499.192.982.418.063.031 1.06.419.386.161.691.289.835.321.242.097 1.091.418.21.096.902.322 2.232.835h.018a250.36 250.36 0 0 0 9.308 3.183c12.648 3.986 26.872 7.361 42.289 10.029l.144.033 3.569.579.449.063c4.067.644 8.198 1.254 12.41 1.801l.512.064 1.593.225.369.032 3.875.482h.063l1.979.225h.112l2.151.226 1.72.193.435.031 1.576.16.611.065 2.186.192 1.253.129.934.063 2.218.193.93.097 1.288.096 2.232.161.611.032 1.625.129.449.031 1.8.129h.273l1.976.129h.116l2.088.129h.063l2.042.096.225.032 1.895.065.386.031 1.72.064.579.031 1.562.065.737.032 1.383.032.933.031 1.222.032 1.091.033 1.046.031 1.284.032.871.032 1.463.032h.706l1.639.032h.516l1.832.033H267.499l1.817-.033h.53l1.639-.032h.691l1.464-.032.866-.032 1.288-.032 1.042-.031 1.109-.033 1.207-.032.934-.031 1.383-.032.755-.032 1.54-.065.579-.031 1.72-.064.404-.031 1.881-.065.225-.032 2.042-.096h.063l2.105-.129h.095l1.979-.129h.288l1.801-.129.449-.031 1.624-.129.611-.032 2.218-.161 1.284-.096.934-.097 2.218-.193.935-.063 1.252-.129 2.188-.192.61-.065 1.575-.16.432-.031 1.737-.193 2.155-.226h.112l1.976-.225h.049l3.889-.482.354-.032 1.594-.225.53-.064c4.193-.547 8.342-1.125 12.392-1.801l.449-.063 3.569-.579.161-.033c15.413-2.668 29.624-6.043 42.272-10.029 3.2-1.028 6.316-2.09 9.307-3.183h.018l2.232-.835.901-.322.207-.096 1.095-.418.239-.097.839-.321.691-.289.383-.161 1.063-.419.063-.031.997-.418.48-.192.565-.258.898-.386.13-.032 1.01-.45.306-.128.709-.321c12.409-5.594 22.422-11.992 29.479-18.968l.274-.257.287-.289.032-.032.516-.547.548-.579.463-.514.066-.064.369-.386.144-.193.484-.546.498-.611c-2.284 19.128-21.155 36.584-50.505 49.668-6.798 3.055-14.144 5.819-21.974 8.358l95.525 165.464c1.078 1.863.436 4.275-1.445 5.367-1.882 1.094-4.293.418-5.37-1.445l-96.44-167.039c-27.873 7.973-61.111 12.635-96.828 12.635-40.775-.001-78.324-6.077-108.347-16.237zm134.729 53.623a3.947 3.947 0 0 1 3.938-3.953 3.951 3.951 0 0 1 3.955 3.953v135.18a3.951 3.951 0 0 1-3.955 3.953 3.948 3.948 0 0 1-3.938-3.953V280.77zm89.531-176.135a116.421 116.421 0 0 1 2.955 12.376l.05.192.031.225.081.419.049.321.049.322.063.32.161.965.05.322.192 1.285.046.322.05.32.08.675.049.322.127.964.031.321.049.322.032.321.031.129.018.225.032.322.031.32.035.322.031.321.014.032.018.321.032.321.031.322.032.32.035.226v.128l.031.322.031.321.014.321.035.322v.127l.032.227.014.32.018.322.032.321.018.354.031.321.014.322.018.354.018.32.014.227v.096l.018.354.015.321.018.322.014.354v.097l.018.225v.322l.018.354.015.32V136.198l.018.322v.354l.014.321v1.77a3.946 3.946 0 0 1-3.938 3.954H145.871a3.952 3.952 0 0 1-3.955-3.954v-1.673l.018-.354v-.32l.017-.322V135.749l.014-.128v-.354l.018-.321.014-.354v-.321l.018-.096v-.225l.018-.354.014-.322.017-.321.014-.322v-.031l.018-.322.014-.354.035-.321.014-.322.017-.191v-.129l.032-.354.014-.321.035-.354.014-.322v-.032l.031-.289.018-.322.032-.354.032-.32.017-.258.014-.063.018-.354.049-.321.031-.321.032-.322v-.128l.032-.226.032-.32.035-.322.032-.321.207-1.64.018-.225.014-.097.049-.321.049-.354.032-.321.144-.964.049-.321.049-.322.031-.289.018-.064.046-.32.049-.322.063-.321.098-.644.063-.32.049-.322.063-.321.032-.226.081-.418.032-.192.035-.225.045-.193.193-1.061.049-.192.049-.227.032-.192.049-.225.032-.161v-.032l.095-.417.049-.227.049-.191.032-.226.049-.192.126-.645.049-.191.049-.226.049-.192.095-.386v-.032l.049-.193.045-.225.049-.193.049-.225.049-.193.046-.192.116-.419.045-.225.049-.192.049-.192.063-.225.049-.193.049-.193v-.033l.112-.385.045-.225.049-.193.063-.193.049-.225.063-.193.049-.225.049-.192.063-.193.049-.226.063-.191.067-.193.045-.193v-.032l.067-.192.063-.193.049-.192.063-.226.049-.193.063-.191c-18.404 5.529-33.562 12.344-44.283 20.027-10.915 7.812-17.07 16.428-17.07 25.268 0 12.119 11.283 21.764 20.446 27.646l.337.225.611.387.386.257.579.321.449.289.516.322.53.321.481.257.597.354.417.226.674.386.372.192.737.418.305.161.821.45.256.128.884.45.211.129.961.481.147.065 1.042.515.081.031 1.141.578 1.158.547.063.033 1.256.578 1.06.482.207.064 1.014.449.273.129.948.418.354.16 1.333.547.821.354.513.193 1.365.547.709.289.674.258.646.256.754.289.562.193.853.322.498.193.93.32.435.16 1.028.387.337.096 1.19.418.21.097 1.333.45.063.032 1.432.45.063.031 2.829.9 1.495.482.467.161 1.028.29.611.192.916.257.74.225.79.226.867.257.691.193.997.289.562.161 1.141.288.435.129 1.59.418 1.415.387.193.032 1.562.417h.063l1.621.418h.081a275.7 275.7 0 0 0 8.296 1.93l.754.16.948.225.916.162.803.191 1.737.354 1.204.226.547.128 1.351.258.4.064 1.513.289.274.064 1.653.289.13.032.337.065 3.039.514.225.064h.162l1.656.289.306.064 1.509.225.484.098 1.365.191.625.097 1.225.192 1.863.29.93.129.951.128 1.077.16.804.13 1.235.16.66.097 1.396.193.499.031 1.576.226.34.032 1.734.192.193.032 1.899.226h.031l1.944.225.13.032 1.832.193.273.031 1.685.16.436.033 1.544.16.593.064 1.383.129.772.064 1.221.129.934.063 1.06.097 1.091.097.916.063 1.271.098.758.063 1.429.097.596.064 1.59.097.436.032 1.783.096.256.033 1.948.127h.112l2.057.098.063.031 1.993.098h.242l1.832.096.4.031 1.688.065h.565l1.526.063.737.033 1.351.064.916.032 1.189.031 1.078.032h1.028l1.271.031.853.033 1.428.032h.691l1.607.032h.53l1.769.032h9.293l1.783-.032h.513l1.625-.032h.674l1.449-.032.85-.033 1.256-.031h1.028l1.077-.032 1.204-.031.902-.032 1.365-.064.74-.033 1.509-.063h.579l1.671-.065.403-.031 1.85-.096h.225l1.993-.098.063-.031 2.057-.098h.112l1.944-.127.273-.033 1.769-.096.436-.032 1.607-.097.579-.064 1.445-.097.755-.063 1.253-.098.916-.063 1.095-.097 1.06-.097.934-.063 1.236-.129.758-.064 1.383-.129.61-.064 1.526-.16.432-.033 1.688-.16.274-.031 1.849-.193.112-.032 1.944-.225h.032l1.898-.226.193-.032 1.732-.192.338-.032 1.575-.226.499-.031 1.4-.193.659-.097 1.235-.16.804-.13 1.095-.16.93-.128.934-.129 1.864-.29 1.239-.192.609-.097 1.383-.191.467-.098 1.51-.225.322-.064 1.64-.289h.175l.211-.064 3.053-.514.338-.065.111-.032 1.675-.289.256-.064 1.509-.289.404-.064 1.352-.258.543-.128 1.207-.226 1.738-.354.817-.191.901-.162.948-.225.772-.16a271.203 271.203 0 0 0 8.275-1.93h.08l1.625-.418h.063l1.559-.417.193-.032 1.414-.387 1.594-.418.436-.129 1.14-.288.562-.161.997-.289.691-.193.866-.257.79-.226.737-.225.916-.257.61-.192 1.032-.29.463-.161 1.495-.482 2.829-.9.066-.031 1.428-.45.066-.032 1.348-.45.193-.097 1.189-.418.341-.096 1.042-.387.418-.16.934-.32.498-.193.854-.322.561-.193.773-.289.624-.256.677-.258.706-.289 1.368-.547.513-.193.821-.354 1.334-.547.354-.16.947-.418.288-.129.996-.449.211-.064 1.06-.482.13-.064 1.123-.514.066-.033 1.155-.547 1.144-.578.081-.031 1.042-.515.145-.065.982-.481.193-.129.884-.45.257-.128.82-.45.32-.161.74-.418.354-.192.674-.386.417-.226.611-.354.467-.257.529-.321.517-.322.463-.289.565-.321.386-.257.61-.387.337-.225c10.272-6.59 17.039-13.855 19.464-21.506l.112-.29c.579-1.929.87-3.89.87-5.851 0-8.84-6.142-17.456-17.07-25.268-10.709-7.688-25.853-14.503-44.271-20.032z" fill-rule="evenodd" clip-rule="evenodd" fill="#495057" class="fill-000000"></path></svg>