<?xml version="1.0" encoding="iso-8859-1"?>
<!-- Generator: Adobe Illustrator 19.0.0, SVG Export Plug-In . SVG Version: 6.00 Build 0)  -->
<svg version="1.1" id="Layer_1" xmlns="http://www.w3.org/2000/svg" xmlns:xlink="http://www.w3.org/1999/xlink" x="0px" y="0px"
	 viewBox="0 0 512 512" style="enable-background:new 0 0 512 512;" xml:space="preserve">
<path style="fill:#51C0C2;" d="M441.427,0c-4.586,0-8.303,3.717-8.303,8.303v22.141h16.605V8.303C449.73,3.717,446.013,0,441.427,0z
	"/>
<path style="fill:#296B94;" d="M463.568,70.695l11.07,17.867l-33.211,8.303l-29.699-8.303l7.559-17.867
	c-5.148-5.447-8.303-12.797-8.303-20.879c0-16.816,13.628-30.443,30.443-30.443S471.87,33,471.87,49.816
	C471.87,57.898,468.715,65.248,463.568,70.695z"/>
<path style="fill:#51C0C2;" d="M256,88.562c-4.586,0-8.303,3.717-8.303,8.303v66.422h16.605v-58.119h210.335V88.562H256z"/>
<path style="fill:#296B94;" d="M391.157,254.616L256,276.757l-135.157-22.141c5.635-69.721,63.986-124.541,135.157-124.541
	S385.522,184.896,391.157,254.616z"/>
<path style="fill:#FF9A52;" d="M441.427,276.757v213.103H70.573V276.757H441.427z"/>
<g>
	<rect x="37.362" y="478.789" style="fill:#F7CD95;" width="437.276" height="33.211"/>
	<rect x="37.362" y="254.616" style="fill:#F7CD95;" width="437.276" height="33.211"/>
	<path style="fill:#F7CD95;" d="M397.146,332.108v102.4H114.854v-102.4H397.146z"/>
</g>
<path style="fill:#296B94;" d="M256,361.168c12.233,0,22.141,9.908,22.141,22.141s-9.908,22.141-22.141,22.141
	c-12.233,0-22.141-9.908-22.141-22.141S243.767,361.168,256,361.168z"/>
<g>
</g>
<g>
</g>
<g>
</g>
<g>
</g>
<g>
</g>
<g>
</g>
<g>
</g>
<g>
</g>
<g>
</g>
<g>
</g>
<g>
</g>
<g>
</g>
<g>
</g>
<g>
</g>
<g>
</g>
</svg>
