<svg id="Ebene_1" version="1.1" viewBox="0 0 256 256" xml:space="preserve" xmlns="http://www.w3.org/2000/svg" enable-background="new 0 0 256 256"><path d="M228 136h-64c-2.2 0-4 1.8-4 4v4h-17.8c-1.7-2-4.3-3.2-7.2-2.9l-21.9 3.8c-.8.1-1.5.1-2.3 0L96 142.4c-21.6-3.4-43.5-3.2-63.4 1l-2.2.4c-3.7.7-6.4 4-6.4 7.8v9.8c0 3.8 2.7 7.1 6.4 7.8l1.9.4c21 4.1 42.5 4.4 63.4 1l15-2.5c.8-.1 1.5-.1 2.3 0l21.8 2.7c2.9.4 5.5-.8 7.2-2.9h17.9c.1.3.2.6.3.8l6.5 12.9c.7 1.4 2.1 2.2 3.6 2.2h14.9l2 8.7c.3 1.9 2 3.3 3.9 3.3h9.2c2 0 3.6-1.4 3.9-3.3l2-8.7h14.9c1.5 0 2.9-.9 3.6-2.2l6.5-12.9c.3-.6.4-1.2.4-1.8V140c.4-2.2-1.4-4-3.6-4zm-84 16h16v8h-16v-8zm53.4 36h-2.9l-.9-4h4.7l-.9 4zm26.6-21.9-4.9 9.9H173l-4.9-9.9V144h56v22.1zM172 132h48c2.2 0 4-1.8 4-4v-10.3c0-1.1-.4-2.1-1.2-2.8l-5.7-5.7c-.3-.3-.7-.6-1.2-.8v-7.9c0-2.5-2-4.5-4.5-4.5H208V77c0-.7.8-1.4 1-2l2.5-11.6C214 53.5 206.4 44 196 44s-17.8 9.5-15.5 19.4L183 75c.2.6.8 1.4 1 2v19h-3.5c-2.5 0-4.5 2-4.5 4.5v7.9c-.4.2-.8.5-1.2.8l-5.7 5.7c-.8.8-1.2 1.8-1.2 2.8V128c.1 2.2 1.9 4 4.1 4zm12-28h24v4h-24v-4zm-8 15.3 3.3-3.3H212.8l3.3 3.3v4.7h-40v-4.7z" fill="#7d5c49" class="fill-000000"></path></svg>